<svg width="49" height="41" viewBox="0 0 49 41" fill="none" xmlns="http://www.w3.org/2000/svg">
<g id="Cart icon">
<mask id="path-1-outside-1_619_544" maskUnits="userSpaceOnUse" x="0.870117" y="0" width="48" height="41" fill="black">
<rect fill="white" x="0.870117" width="48" height="41"/>
<path d="M45.1339 28.2307H15.9264L17.3929 25.4375L41.7594 25.3962C42.5834 25.3962 43.2897 24.8458 43.4368 24.0844L46.8113 6.42147C46.8995 5.95822 46.7671 5.48122 46.4434 5.11888C46.2834 4.94055 46.0839 4.79691 45.8586 4.69791C45.6333 4.59891 45.3877 4.54692 45.1388 4.54556L14.1411 4.44924L13.8762 3.28424C13.7095 2.54122 12.9934 2 12.1792 2H4.60147C4.14229 2 3.70191 2.17058 3.37722 2.47421C3.05253 2.77785 2.87012 3.18966 2.87012 3.61907C2.87012 4.04847 3.05253 4.46028 3.37722 4.76392C3.70191 5.06755 4.14229 5.23813 4.60147 5.23813H10.7765L11.934 10.3843L14.7836 23.2863L11.1149 28.8866C10.9244 29.127 10.8096 29.4126 10.7836 29.7109C10.7576 30.0091 10.8214 30.3083 10.9678 30.5744C11.262 31.1202 11.8555 31.4642 12.5127 31.4642H15.5929C14.9362 32.2798 14.5816 33.2732 14.5825 34.2942C14.5825 36.8902 16.8387 39 19.6147 39C22.3908 39 24.647 36.8902 24.647 34.2942C24.647 33.2713 24.284 32.2761 23.6366 31.4642H31.538C30.8814 32.2798 30.5267 33.2732 30.5277 34.2942C30.5277 36.8902 32.7838 39 35.5599 39C38.336 39 40.5921 36.8902 40.5921 34.2942C40.5921 33.2713 40.2292 32.2761 39.5817 31.4642H45.1388C46.0903 31.4642 46.8701 30.7396 46.8701 29.8452C46.8673 29.4162 46.6831 29.0057 46.3578 28.7033C46.0326 28.4008 45.5926 28.2309 45.1339 28.2307ZM19.6147 35.7435C18.7613 35.7435 18.0649 35.0922 18.0649 34.2942C18.0649 33.4961 18.7613 32.8448 19.6147 32.8448C20.4682 32.8448 21.1646 33.4961 21.1646 34.2942C21.1646 34.6786 21.0013 35.0472 20.7107 35.319C20.42 35.5908 20.0258 35.7435 19.6147 35.7435ZM35.5599 35.7435C34.7065 35.7435 34.01 35.0922 34.01 34.2942C34.01 33.4961 34.7065 32.8448 35.5599 32.8448C36.4133 32.8448 37.1098 33.4961 37.1098 34.2942C37.1098 34.6786 36.9465 35.0472 36.6558 35.319C36.3652 35.5908 35.9709 35.7435 35.5599 35.7435Z"/>
</mask>
<path d="M45.1339 28.2307H15.9264L17.3929 25.4375L41.7594 25.3962C42.5834 25.3962 43.2897 24.8458 43.4368 24.0844L46.8113 6.42147C46.8995 5.95822 46.7671 5.48122 46.4434 5.11888C46.2834 4.94055 46.0839 4.79691 45.8586 4.69791C45.6333 4.59891 45.3877 4.54692 45.1388 4.54556L14.1411 4.44924L13.8762 3.28424C13.7095 2.54122 12.9934 2 12.1792 2H4.60147C4.14229 2 3.70191 2.17058 3.37722 2.47421C3.05253 2.77785 2.87012 3.18966 2.87012 3.61907C2.87012 4.04847 3.05253 4.46028 3.37722 4.76392C3.70191 5.06755 4.14229 5.23813 4.60147 5.23813H10.7765L11.934 10.3843L14.7836 23.2863L11.1149 28.8866C10.9244 29.127 10.8096 29.4126 10.7836 29.7109C10.7576 30.0091 10.8214 30.3083 10.9678 30.5744C11.262 31.1202 11.8555 31.4642 12.5127 31.4642H15.5929C14.9362 32.2798 14.5816 33.2732 14.5825 34.2942C14.5825 36.8902 16.8387 39 19.6147 39C22.3908 39 24.647 36.8902 24.647 34.2942C24.647 33.2713 24.284 32.2761 23.6366 31.4642H31.538C30.8814 32.2798 30.5267 33.2732 30.5277 34.2942C30.5277 36.8902 32.7838 39 35.5599 39C38.336 39 40.5921 36.8902 40.5921 34.2942C40.5921 33.2713 40.2292 32.2761 39.5817 31.4642H45.1388C46.0903 31.4642 46.8701 30.7396 46.8701 29.8452C46.8673 29.4162 46.6831 29.0057 46.3578 28.7033C46.0326 28.4008 45.5926 28.2309 45.1339 28.2307ZM19.6147 35.7435C18.7613 35.7435 18.0649 35.0922 18.0649 34.2942C18.0649 33.4961 18.7613 32.8448 19.6147 32.8448C20.4682 32.8448 21.1646 33.4961 21.1646 34.2942C21.1646 34.6786 21.0013 35.0472 20.7107 35.319C20.42 35.5908 20.0258 35.7435 19.6147 35.7435ZM35.5599 35.7435C34.7065 35.7435 34.01 35.0922 34.01 34.2942C34.01 33.4961 34.7065 32.8448 35.5599 32.8448C36.4133 32.8448 37.1098 33.4961 37.1098 34.2942C37.1098 34.6786 36.9465 35.0472 36.6558 35.319C36.3652 35.5908 35.9709 35.7435 35.5599 35.7435Z" fill="white"/>
<path d="M45.1339 28.2307L45.1349 26.2307H45.1339V28.2307ZM15.9264 28.2307L14.1556 27.301L12.6175 30.2307H15.9264V28.2307ZM17.3929 25.4375L17.3895 23.4375L16.183 23.4395L15.6221 24.5078L17.3929 25.4375ZM41.7594 25.3962V23.3962L41.756 23.3962L41.7594 25.3962ZM43.4368 24.0844L45.4005 24.4639L45.4013 24.4597L43.4368 24.0844ZM46.8113 6.42147L48.7757 6.79677L48.7759 6.79589L46.8113 6.42147ZM46.4434 5.11888L47.9349 3.78641L47.9321 3.78327L46.4434 5.11888ZM45.1388 4.54556L45.1497 2.54558L45.145 2.54557L45.1388 4.54556ZM14.1411 4.44924L12.1909 4.89261L12.5436 6.44428L14.1349 6.44923L14.1411 4.44924ZM13.8762 3.28424L11.9248 3.72222L11.926 3.72762L13.8762 3.28424ZM4.60147 2V0V2ZM2.87012 3.61907H0.870117H2.87012ZM4.60147 5.23813V3.23813V5.23813ZM10.7765 5.23813L12.7277 4.79924L12.3766 3.23813H10.7765V5.23813ZM11.934 10.3843L13.8869 9.95294L13.8852 9.94539L11.934 10.3843ZM14.7836 23.2864L16.4566 24.3823L16.9182 23.6776L16.7365 22.855L14.7836 23.2864ZM11.1149 28.8866L12.6825 30.1286L12.7385 30.0579L12.7879 29.9825L11.1149 28.8866ZM10.9678 30.5744L12.7282 29.6253L12.7243 29.618L12.7203 29.6107L10.9678 30.5744ZM15.5929 31.4642L17.1507 32.7185L19.7708 29.4642H15.5929V31.4642ZM14.5825 34.2942H16.5825L16.5825 34.2923L14.5825 34.2942ZM23.6366 31.4642V29.4642H19.4835L22.0729 32.7112L23.6366 31.4642ZM31.538 31.4642L33.0959 32.7185L35.7159 29.4642H31.538V31.4642ZM30.5277 34.2942H32.5277L32.5277 34.2923L30.5277 34.2942ZM39.5817 31.4642V29.4642H35.4287L38.0181 32.7112L39.5817 31.4642ZM46.8701 29.8452H48.8702L48.8701 29.8319L46.8701 29.8452ZM19.6147 35.7435V33.7435V35.7435ZM35.5599 35.7435V33.7435V35.7435ZM37.1098 34.2942H35.1098H37.1098ZM45.1339 26.2307H15.9264V30.2307H45.1339V26.2307ZM17.6972 29.1604L19.1637 26.3672L15.6221 24.5078L14.1556 27.301L17.6972 29.1604ZM17.3963 27.4375L41.7628 27.3962L41.756 23.3962L17.3895 23.4375L17.3963 27.4375ZM41.7594 27.3962C43.4476 27.3962 45.0543 26.2555 45.4005 24.4639L41.4732 23.7049C41.4977 23.5781 41.5657 23.4927 41.6207 23.4497C41.6743 23.4079 41.7251 23.3962 41.7594 23.3962V27.3962ZM45.4013 24.4597L48.7757 6.79677L44.8468 6.04617L41.4724 23.7091L45.4013 24.4597ZM48.7759 6.79589C48.9828 5.71047 48.6662 4.60496 47.9349 3.78641L44.9519 6.45135C44.8681 6.35747 44.8163 6.20597 44.8466 6.04705L48.7759 6.79589ZM47.9321 3.78327C47.5767 3.38718 47.1419 3.07727 46.6632 2.86691L45.0539 6.52891C45.0258 6.51655 44.9901 6.49393 44.9547 6.45449L47.9321 3.78327ZM46.6632 2.86691C46.1847 2.65665 45.6687 2.54843 45.1497 2.54559L45.1278 6.54553C45.1066 6.54541 45.0818 6.54117 45.0539 6.52891L46.6632 2.86691ZM45.145 2.54557L14.1473 2.44925L14.1349 6.44923L45.1325 6.54555L45.145 2.54557ZM16.0913 4.00586L15.8265 2.84087L11.926 3.72762L12.1909 4.89261L16.0913 4.00586ZM15.8277 2.84627C15.4359 1.10047 13.8341 0 12.1792 0V4C12.1437 4 12.104 3.98884 12.0639 3.95851C12.0234 3.9279 11.9543 3.85368 11.9248 3.72221L15.8277 2.84627ZM12.1792 0H4.60147V4H12.1792V0ZM4.60147 0C3.65352 0 2.71964 0.350902 2.01117 1.01342L4.74327 3.935C4.68418 3.99026 4.63106 4 4.60147 4V0ZM2.01117 1.01342C1.29817 1.68018 0.870117 2.61431 0.870117 3.61907H4.87012C4.87012 3.76502 4.80689 3.87551 4.74327 3.935L2.01117 1.01342ZM0.870117 3.61907C0.870117 4.62383 1.29817 5.55795 2.01117 6.22471L4.74327 3.30313C4.80689 3.36262 4.87012 3.47311 4.87012 3.61907H0.870117ZM2.01117 6.22471C2.71964 6.88723 3.65352 7.23813 4.60147 7.23813V3.23813C4.63106 3.23813 4.68418 3.24787 4.74327 3.30313L2.01117 6.22471ZM4.60147 7.23813H10.7765V3.23813H4.60147V7.23813ZM8.82523 5.67702L9.98274 10.8232L13.8852 9.94539L12.7277 4.79924L8.82523 5.67702ZM9.98106 10.8156L12.8307 23.7177L16.7365 22.855L13.8869 9.95294L9.98106 10.8156ZM13.1106 22.1904L9.44193 27.7906L12.7879 29.9825L16.4566 24.3823L13.1106 22.1904ZM9.5473 27.6446C9.12001 28.1839 8.85206 28.8388 8.79118 29.5372L12.7761 29.8846C12.7672 29.9863 12.7288 30.0702 12.6825 30.1286L9.5473 27.6446ZM8.79118 29.5372C8.73026 30.236 8.88101 30.9303 9.21526 31.5381L12.7203 29.6107C12.7618 29.6863 12.785 29.7823 12.7761 29.8846L8.79118 29.5372ZM9.20735 31.5236C9.87223 32.7568 11.1668 33.4642 12.5127 33.4642V29.4642C12.5442 29.4642 12.6519 29.4837 12.7282 29.6253L9.20735 31.5236ZM12.5127 33.4642H15.5929V29.4642H12.5127V33.4642ZM14.035 30.21C13.0998 31.3716 12.5811 32.8057 12.5825 34.296L16.5825 34.2923C16.582 33.7408 16.7727 33.1881 17.1507 32.7185L14.035 30.21ZM12.5825 34.2942C12.5825 38.1189 15.8626 41 19.6147 41V37C17.8148 37 16.5825 35.6614 16.5825 34.2942H12.5825ZM19.6147 41C23.3669 41 26.647 38.1189 26.647 34.2942H22.647C22.647 35.6614 21.4147 37 19.6147 37V41ZM26.647 34.2942C26.647 32.7957 26.1158 31.3653 25.2002 30.2172L22.0729 32.7112C22.4523 33.1869 22.647 33.747 22.647 34.2942H26.647ZM23.6366 33.4642H31.538V29.4642H23.6366V33.4642ZM29.9802 30.21C29.045 31.3716 28.5263 32.8057 28.5277 34.296L32.5277 34.2923C32.5272 33.7408 32.7178 33.1881 33.0959 32.7185L29.9802 30.21ZM28.5277 34.2942C28.5277 38.1189 31.8077 41 35.5599 41V37C33.76 37 32.5277 35.6614 32.5277 34.2942H28.5277ZM35.5599 41C39.3121 41 42.5921 38.1189 42.5921 34.2942H38.5921C38.5921 35.6614 37.3598 37 35.5599 37V41ZM42.5921 34.2942C42.5921 32.7957 42.0609 31.3653 41.1454 30.2172L38.0181 32.7112C38.3974 33.1869 38.5921 33.747 38.5921 34.2942H42.5921ZM39.5817 33.4642H45.1388V29.4642H39.5817V33.4642ZM45.1388 33.4642C47.0626 33.4642 48.8701 31.9719 48.8701 29.8452H44.8701C44.8701 29.6913 44.9407 29.5802 44.9966 29.528C45.0499 29.4782 45.1037 29.4642 45.1388 29.4642V33.4642ZM48.8701 29.8319C48.8634 28.8303 48.4324 27.9013 47.7198 27.2386L44.9959 30.1679C44.9338 30.1101 44.8711 30.0022 44.8702 29.8585L48.8701 29.8319ZM47.7198 27.2386C47.0115 26.5801 46.0803 26.2312 45.1349 26.2307L45.1328 30.2307C45.1049 30.2307 45.0536 30.2215 44.9959 30.1679L47.7198 27.2386ZM19.6147 33.7435C19.7004 33.7435 19.7999 33.777 19.8858 33.8573C19.9737 33.9395 20.0649 34.0924 20.0649 34.2942H16.0649C16.0649 36.321 17.7852 37.7435 19.6147 37.7435V33.7435ZM20.0649 34.2942C20.0649 34.4959 19.9737 34.6488 19.8858 34.731C19.7999 34.8114 19.7004 34.8448 19.6147 34.8448V30.8448C17.7852 30.8448 16.0649 32.2673 16.0649 34.2942H20.0649ZM19.6147 34.8448C19.5291 34.8448 19.4296 34.8114 19.3437 34.731C19.2558 34.6488 19.1646 34.4959 19.1646 34.2942H23.1646C23.1646 32.2673 21.4443 30.8448 19.6147 30.8448V34.8448ZM19.1646 34.2942C19.1646 34.1032 19.247 33.9495 19.3446 33.8582L22.0767 36.7798C22.7557 36.1449 23.1646 35.2539 23.1646 34.2942H19.1646ZM19.3446 33.8582C19.4377 33.7711 19.537 33.7435 19.6147 33.7435V37.7435C20.5146 37.7435 21.4023 37.4105 22.0767 36.7798L19.3446 33.8582ZM35.5599 33.7435C35.6456 33.7435 35.745 33.777 35.831 33.8573C35.9189 33.9395 36.01 34.0924 36.01 34.2942H32.01C32.01 36.321 33.7303 37.7435 35.5599 37.7435V33.7435ZM36.01 34.2942C36.01 34.4959 35.9189 34.6488 35.831 34.731C35.745 34.8114 35.6456 34.8448 35.5599 34.8448V30.8448C33.7304 30.8448 32.01 32.2673 32.01 34.2942H36.01ZM35.5599 34.8448C35.4742 34.8448 35.3748 34.8114 35.2888 34.731C35.2009 34.6488 35.1098 34.4959 35.1098 34.2942H39.1098C39.1098 32.2673 37.3894 30.8448 35.5599 30.8448V34.8448ZM35.1098 34.2942C35.1098 34.1032 35.1921 33.9495 35.2898 33.8582L38.0219 36.7798C38.7008 36.1449 39.1098 35.2539 39.1098 34.2942H35.1098ZM35.2898 33.8582C35.3829 33.7711 35.4822 33.7435 35.5599 33.7435V37.7435C36.4597 37.7435 37.3474 37.4105 38.0219 36.7798L35.2898 33.8582Z" fill="black" mask="url(#path-1-outside-1_619_544)"/>
</g>
</svg>
