<svg width="56" height="56" viewBox="0 0 56 56" fill="none" xmlns="http://www.w3.org/2000/svg">
<path d="M41.9929 33.599C44.6871 33.589 47.3212 32.8017 49.5789 31.3316L50.3907 30.7997C50.8416 30.494 51.2633 30.1473 51.6504 29.764L52.2382 29.2041C52.7308 28.7016 53.1803 28.1585 53.5818 27.5805L53.7498 27.3566C54.2031 26.688 54.5876 25.9752 54.8975 25.2292C54.9982 25.0215 55.0825 24.8062 55.1494 24.5853C55.382 24.0131 55.5692 23.4234 55.7093 22.8218L55.8772 22.122C55.9834 21.2867 56.0208 20.4441 55.9892 19.6026V0.0078125L47.5914 8.4056H36.3944L27.9966 0.0078125V19.6026C27.9966 23.3147 29.4712 26.8747 32.096 29.4995C34.7208 32.1244 38.2808 33.599 41.9929 33.599ZM47.5914 14.0041C48.1451 14.0041 48.6863 14.1683 49.1466 14.4759C49.6069 14.7835 49.9657 15.2207 50.1776 15.7322C50.3895 16.2437 50.4449 16.8065 50.3369 17.3495C50.2289 17.8925 49.9623 18.3913 49.5708 18.7828C49.1793 19.1742 48.6805 19.4409 48.1375 19.5489C47.5945 19.6569 47.0317 19.6014 46.5202 19.3896C46.0087 19.1777 45.5715 18.8189 45.2639 18.3586C44.9563 17.8982 44.7922 17.357 44.7922 16.8034C44.7922 16.061 45.0871 15.349 45.612 14.824C46.137 14.299 46.849 14.0041 47.5914 14.0041ZM36.3944 14.0041C36.948 14.0041 37.4892 14.1683 37.9496 14.4759C38.4099 14.7835 38.7687 15.2207 38.9805 15.7322C39.1924 16.2437 39.2479 16.8065 39.1398 17.3495C39.0318 17.8925 38.7652 18.3913 38.3737 18.7828C37.9823 19.1742 37.4835 19.4409 36.9405 19.5489C36.3975 19.6569 35.8346 19.6014 35.3231 19.3896C34.8116 19.1777 34.3745 18.8189 34.0669 18.3586C33.7593 17.8982 33.5951 17.357 33.5951 16.8034C33.5951 16.061 33.89 15.349 34.415 14.824C34.94 14.299 35.652 14.0041 36.3944 14.0041Z" fill="#FFB800"/>
<path d="M25.1973 55.9931V41.9967H16.7995V55.9931H8.40169V27.7205C6.9779 27.5137 5.61736 26.995 4.41728 26.2014C3.21721 25.4078 2.20724 24.3589 1.45952 23.1297C0.555667 21.6413 0.0540719 19.9436 0.00390625 18.203C0.0546659 16.8104 0.389788 15.4428 0.988663 14.1844C1.58754 12.9261 2.4375 11.8035 3.48629 10.8859C4.53507 9.96817 5.76051 9.27474 7.08722 8.8482C8.41393 8.42166 9.81387 8.27104 11.201 8.4056C11.9479 8.4505 12.6958 8.33645 13.3954 8.07098C14.095 7.8055 14.7303 7.39465 15.2594 6.86555C15.7885 6.33644 16.1994 5.70112 16.4649 5.00153C16.7303 4.30194 16.8444 3.55399 16.7995 2.80707C16.7995 2.06466 17.0944 1.35266 17.6194 0.827697C18.1443 0.302734 18.8563 0.0078125 19.5987 0.0078125C20.3412 0.0078125 21.0532 0.302734 21.5781 0.827697C22.1031 1.35266 22.398 2.06466 22.398 2.80707C22.4405 4.28904 22.18 5.76409 21.6323 7.14181C21.0847 8.51953 20.2615 9.77091 19.2131 10.8193C18.1648 11.8676 16.9134 12.6908 15.5357 13.2385C14.158 13.7861 12.6829 14.0467 11.201 14.0041C6.13429 14.0041 5.60243 17.2513 5.60243 18.231C5.60243 19.2108 6.1063 22.4019 11.201 22.4019H25.4492C25.8604 24.8134 26.7934 27.106 28.183 29.1193C29.5726 31.1327 31.3852 32.8182 33.4941 34.0579C35.603 35.2977 37.9573 36.0618 40.3923 36.2968C42.8273 36.5318 45.2843 36.232 47.5914 35.4185V55.9931H39.1936V41.9967H33.5951V55.9931H25.1973Z" fill="#FFB800"/>
</svg>
