<svg width="23" height="29" viewBox="0 0 23 29" fill="none" xmlns="http://www.w3.org/2000/svg">
<path fill-rule="evenodd" clip-rule="evenodd" d="M13.9834 21.7172C13.0104 22.6902 11.4262 22.6902 10.4532 21.7172L0.735966 12C0.261954 11.5384 0 10.9023 0 10.2412V2.4948C0 1.12266 1.12266 0 2.4948 0H10.2412C10.9032 0.00155342 11.5386 0.261083 12.0125 0.723492L21.7297 10.4407C22.7027 11.4137 22.7027 12.9979 21.7297 13.9709L13.9834 21.7172ZM6.40401 4.19889C6.11159 3.90648 5.71499 3.7422 5.30145 3.7422C4.88791 3.7422 4.49131 3.90648 4.19889 4.19889C3.90648 4.49131 3.7422 4.88791 3.7422 5.30145C3.7422 5.71499 3.90648 6.11159 4.19889 6.40401C4.49131 6.69642 4.88791 6.8607 5.30145 6.8607C5.71499 6.8607 6.11159 6.69642 6.40401 6.40401C6.69642 6.11159 6.8607 5.71499 6.8607 5.30145C6.8607 4.88791 6.69642 4.49131 6.40401 4.19889Z" fill="#B12C29"/>
<path d="M0 13.9834L12.212 26.1954L21.7297 16.6777C22.7027 17.6507 22.7027 19.2349 21.7297 20.2079L13.9834 27.9542C13.0104 28.9272 11.4262 28.9272 10.4532 27.9542L0.735966 18.237C0.261954 17.7754 0 17.1393 0 16.4782V13.9834Z" fill="#B12C29"/>
</svg>
