<svg width="20" height="21" viewBox="0 0 20 21" fill="none" xmlns="http://www.w3.org/2000/svg">
<path d="M18 2L17 2L17 15L18 15C18.5304 15 19.0391 14.7893 19.4142 14.4142C19.7893 14.0391 20 13.5304 20 13L20 4C20 3.46957 19.7893 2.96086 19.4142 2.58579C19.0391 2.21071 18.5304 2 18 2ZM2 15L9 15L7.878 18.368C7.77789 18.6686 7.75061 18.9887 7.79843 19.3018C7.84624 19.615 7.96778 19.9124 8.15302 20.1694C8.33827 20.4264 8.58192 20.6358 8.86392 20.7802C9.14591 20.9246 9.45818 20.9999 9.775 21L10 21L15 15.562L15 2C15 2 7.49426 -0.498758 4 2C0.999925 4.14537 0.0880003 10.596 0.0880003 10.596L8.74228e-07 11L6.99382e-07 13C6.5301e-07 13.5304 0.210715 14.0391 0.585787 14.4142C0.96086 14.7893 1.46957 15 2 15Z" fill="#595959"/>
</svg>
