<svg width="38" height="38" viewBox="0 0 38 38" fill="none" xmlns="http://www.w3.org/2000/svg">
<path d="M35.5992 12.0267L35.5986 12.0254C34.6952 9.87388 33.3811 7.91843 31.7296 6.26794C30.0823 4.61433 28.1258 3.29965 25.9712 2.39838C23.7638 1.47081 21.3922 0.995306 18.9972 1.00003L18.9222 1.00002L18.9172 1.00005C16.4858 1.01208 14.1292 1.4938 11.9092 2.44257C9.773 3.35304 7.83484 4.67009 6.20307 6.32024C4.56715 7.96748 3.26777 9.91661 2.37741 12.0591L2.37717 12.0597C1.45346 14.2864 0.98532 16.675 1.00035 19.085C1.01223 21.7926 1.64246 24.4798 2.82181 26.8994V32.433C2.82181 33.9497 4.05345 35.1786 5.56723 35.1786H11.1057C13.5397 36.3637 16.2109 36.9867 18.9211 37H18.926H19.0058C21.411 37 23.743 36.534 25.941 35.6221L25.9414 35.6219C28.0856 34.7313 30.0353 33.4317 31.681 31.7958C33.3391 30.153 34.6444 28.2314 35.5583 26.0901L35.5583 26.09C36.505 23.8709 36.9878 21.5116 36.9999 19.0809L36.9999 19.0792C37.0079 16.6347 36.5329 14.2598 35.5992 12.0267Z" fill="white" stroke="black" stroke-width="2"/>
</svg>
