<svg width="66" height="67" viewBox="0 0 66 67" fill="none" xmlns="http://www.w3.org/2000/svg">
<circle cx="33" cy="35" r="32" fill="white"/>
<path fill-rule="evenodd" clip-rule="evenodd" d="M33 63.65C49.4026 63.65 62.7 50.1512 62.7 33.5C62.7 16.8488 49.4026 3.35 33 3.35C16.5973 3.35 3.3 16.8488 3.3 33.5C3.3 50.1512 16.5973 63.65 33 63.65ZM33 67C51.2259 67 66 52.002 66 33.5C66 14.998 51.2259 0 33 0C14.7741 0 0 14.998 0 33.5C0 52.002 14.7741 67 33 67Z" fill="#1E1E1E"/>
<path d="M13 53.2075C13 51.5548 14.2867 50.158 16 49.9756C28.8582 48.6092 37.1998 48.7324 50.0297 50.006C50.6704 50.0706 51.2776 50.3129 51.7772 50.7033C52.2768 51.0938 52.6472 51.6154 52.843 52.2046C53.0389 52.7937 53.0517 53.4249 52.8801 54.0209C52.7084 54.617 52.3597 55.1522 51.8764 55.5611C36.7348 68.2312 28.0816 68.0568 14.0667 55.5739C13.3833 54.9659 13 54.1019 13 53.2091V53.2075Z" fill="#1E1E1E"/>
<path fill-rule="evenodd" clip-rule="evenodd" d="M50.1153 51.372C37.1919 50.0554 28.8443 49.932 15.9226 51.3403C15.4973 51.3891 15.1052 51.5908 14.8213 51.9066C14.5375 52.2224 14.382 52.6302 14.3844 53.0519C14.3844 53.5286 14.5858 53.9802 14.9259 54.2936C21.979 60.7367 27.323 63.6483 32.5468 63.6666C37.7893 63.685 43.4209 60.7967 51.0528 54.2469C51.2952 54.0344 51.4698 53.757 51.5552 53.4486C51.6406 53.1402 51.6332 52.814 51.5339 52.5097C51.4346 52.2053 51.2477 51.9359 50.9958 51.7343C50.744 51.5326 50.4381 51.4073 50.1153 51.3737V51.372ZM15.552 48.0271C28.7445 46.5888 37.3375 46.7188 50.4656 48.0571C51.4442 48.1577 52.3718 48.5371 53.1348 49.1489C53.8978 49.7608 54.4632 50.5784 54.7616 51.5018C55.0601 52.4252 55.0787 53.4142 54.8152 54.3479C54.5517 55.2815 54.0175 56.1193 53.278 56.7585C45.5362 63.405 39.0889 67.0249 32.5367 66.9999C25.9659 66.9765 19.8029 63.295 12.6262 56.7368C12.1124 56.2655 11.7028 55.6948 11.423 55.0605C11.1432 54.4262 10.9992 53.7419 11 53.0503C10.9975 51.8077 11.4606 50.6079 12.3006 49.6807C13.1405 48.7535 14.2983 48.1641 15.552 48.0254V48.0271Z" fill="#1E1E1E"/>
<path d="M46 26.5C46 30.0804 44.6304 33.5142 42.1924 36.0459C39.7544 38.5777 36.4478 40 33 40C29.5522 40 26.2456 38.5777 23.8076 36.0459C21.3696 33.5142 20 30.0804 20 26.5C20 22.9196 21.3696 19.4858 23.8076 16.9541C26.2456 14.4223 29.5522 13 33 13C36.4478 13 39.7544 14.4223 42.1924 16.9541C44.6304 19.4858 46 22.9196 46 26.5Z" fill="#1E1E1E"/>
<path fill-rule="evenodd" clip-rule="evenodd" d="M33 36.625C35.5859 36.625 38.0658 35.5583 39.8943 33.6595C41.7228 31.7607 42.75 29.1853 42.75 26.5C42.75 23.8147 41.7228 21.2394 39.8943 19.3405C38.0658 17.4417 35.5859 16.375 33 16.375C30.4141 16.375 27.9342 17.4417 26.1057 19.3405C24.2772 21.2394 23.25 23.8147 23.25 26.5C23.25 29.1853 24.2772 31.7607 26.1057 33.6595C27.9342 35.5583 30.4141 36.625 33 36.625ZM33 40C36.4478 40 39.7544 38.5777 42.1924 36.0459C44.6304 33.5142 46 30.0804 46 26.5C46 22.9196 44.6304 19.4858 42.1924 16.9541C39.7544 14.4223 36.4478 13 33 13C29.5522 13 26.2456 14.4223 23.8076 16.9541C21.3696 19.4858 20 22.9196 20 26.5C20 30.0804 21.3696 33.5142 23.8076 36.0459C26.2456 38.5777 29.5522 40 33 40Z" fill="#1E1E1E"/>
</svg>
