<svg width="28" height="33" viewBox="0 0 28 33" fill="none" xmlns="http://www.w3.org/2000/svg">
<path d="M26.32 30.8702C26.32 31.5401 25.8195 32.0813 25.2 32.0813H15.19V17.8517H26.32V30.8702ZM12.81 32.0813H2.8C2.1805 32.0813 1.68 31.5401 1.68 30.8702V17.8517H12.81V32.0813ZM1.12 8.76902H6.286C5.81 7.95915 5.53 6.99789 5.53 5.96852C5.53 3.08855 7.6965 0.745972 10.36 0.745972C11.809 0.745972 13.1145 1.44231 14 2.5398C14.8855 1.44231 16.191 0.745972 17.64 0.745972C20.3035 0.745972 22.47 3.08855 22.47 5.96852C22.47 6.99789 22.1935 7.95915 21.714 8.76902H26.88C27.4995 8.76902 28 9.3102 28 9.98005V15.2783H15.19V8.76902H12.81V15.2783H0V9.98005C0 9.3102 0.5005 8.76902 1.12 8.76902ZM15.19 8.61764H17.64C18.991 8.61764 20.09 7.42932 20.09 5.96852C20.09 4.50772 18.991 3.3194 17.64 3.3194C16.289 3.3194 15.19 4.50772 15.19 5.96852V8.61764ZM10.36 8.61764H12.81V5.96852C12.81 4.50772 11.711 3.3194 10.36 3.3194C9.009 3.3194 7.91 4.50772 7.91 5.96852C7.91 7.42932 9.009 8.61764 10.36 8.61764Z" fill="black"/>
</svg>
