<svg width="104" height="65" viewBox="0 0 104 65" fill="none" xmlns="http://www.w3.org/2000/svg">
<g filter="url(#filter0_d_305_663)">
<rect x="4" width="96" height="57" rx="28.5" fill="#B12C29"/>
</g>
<path d="M23.7417 38V19.1H26.0097L36.0807 34.247V19.1H38.3487V38H36.0807L26.0097 22.853V38H23.7417ZM48.2429 38.324C46.9649 38.324 45.8309 38.036 44.8409 37.46C43.8509 36.866 43.0679 36.047 42.4919 35.003C41.9339 33.959 41.6549 32.726 41.6549 31.304C41.6549 29.9 41.9339 28.676 42.4919 27.632C43.0499 26.57 43.8239 25.751 44.8139 25.175C45.8219 24.581 46.9829 24.284 48.2969 24.284C49.5929 24.284 50.7089 24.581 51.6449 25.175C52.5989 25.751 53.3279 26.516 53.8319 27.47C54.3359 28.424 54.5879 29.45 54.5879 30.548C54.5879 30.746 54.5789 30.944 54.5609 31.142C54.5609 31.34 54.5609 31.565 54.5609 31.817H43.8959C43.9499 32.843 44.1839 33.698 44.5979 34.382C45.0299 35.048 45.5609 35.552 46.1909 35.894C46.8389 36.236 47.5229 36.407 48.2429 36.407C49.1789 36.407 49.9619 36.191 50.5919 35.759C51.2219 35.327 51.6809 34.742 51.9689 34.004H54.2099C53.8499 35.246 53.1569 36.281 52.1309 37.109C51.1229 37.919 49.8269 38.324 48.2429 38.324ZM48.2429 26.201C47.1629 26.201 46.1999 26.534 45.3539 27.2C44.5259 27.848 44.0489 28.802 43.9229 30.062H52.3469C52.2929 28.856 51.8789 27.911 51.1049 27.227C50.3309 26.543 49.3769 26.201 48.2429 26.201ZM59.7666 38L55.8516 24.608H58.1196L60.9546 35.111L64.0866 24.608H66.6516L69.8106 35.111L72.6186 24.608H74.9136L70.9986 38H68.6766L65.3826 26.957L62.0886 38H59.7666ZM77.9081 32.762L77.6381 19.1H80.0951L79.8251 32.762H77.9081ZM78.9341 38.135C78.4841 38.135 78.1061 37.991 77.8001 37.703C77.5121 37.397 77.3681 37.028 77.3681 36.596C77.3681 36.164 77.5121 35.804 77.8001 35.516C78.1061 35.21 78.4841 35.057 78.9341 35.057C79.3661 35.057 79.7261 35.21 80.0141 35.516C80.3201 35.804 80.4731 36.164 80.4731 36.596C80.4731 37.028 80.3201 37.397 80.0141 37.703C79.7261 37.991 79.3661 38.135 78.9341 38.135Z" fill="white"/>
<defs>
<filter id="filter0_d_305_663" x="0" y="0" width="104" height="65" filterUnits="userSpaceOnUse" color-interpolation-filters="sRGB">
<feFlood flood-opacity="0" result="BackgroundImageFix"/>
<feColorMatrix in="SourceAlpha" type="matrix" values="0 0 0 0 0 0 0 0 0 0 0 0 0 0 0 0 0 0 127 0" result="hardAlpha"/>
<feOffset dy="4"/>
<feGaussianBlur stdDeviation="2"/>
<feComposite in2="hardAlpha" operator="out"/>
<feColorMatrix type="matrix" values="0 0 0 0 0 0 0 0 0 0 0 0 0 0 0 0 0 0 0.25 0"/>
<feBlend mode="normal" in2="BackgroundImageFix" result="effect1_dropShadow_305_663"/>
<feBlend mode="normal" in="SourceGraphic" in2="effect1_dropShadow_305_663" result="shape"/>
</filter>
</defs>
</svg>
