<svg width="38" height="42" viewBox="0 0 38 42" fill="none" xmlns="http://www.w3.org/2000/svg">
<path d="M16.1357 35.7959H14.9879L15.1452 36.9329C15.2708 37.8412 15.7209 38.6734 16.4123 39.2757C17.1037 39.878 17.9896 40.2098 18.9066 40.2098C19.8235 40.2098 20.7095 39.878 21.4009 39.2757C22.0922 38.6734 22.5423 37.8412 22.668 36.9329L22.8253 35.7959H21.6774H16.1357Z" fill="white" stroke="black" stroke-width="2"/>
<path d="M34.9225 30.7349C33.9938 29.9037 33.1789 28.9537 32.4988 27.9095C31.7703 26.4705 31.3312 24.9026 31.2063 23.2945V18.119C31.2136 15.0951 30.1165 12.1726 28.1212 9.90041C26.4176 7.96039 24.833 6.48939 22.2419 5.92803V4.40917C22.2419 3.47293 21.7036 2.62909 21.1291 2.06701C20.5578 1.50793 19.7181 1 18.8327 1C17.9488 1 17.1088 1.51469 16.5401 2.0714C15.9683 2.63108 15.4236 3.47501 15.4236 4.40917V5.95787C12.8548 6.54193 11.2991 8.0212 9.62049 9.95173C7.65127 12.2164 6.56941 15.118 6.57522 18.1191V23.2945C6.45026 24.9037 6.0106 26.4727 5.28123 27.9125C4.61316 28.9541 3.81179 29.9039 2.89749 30.7379L2.88294 30.7493C2.85403 30.7722 2.81409 30.8044 2.76907 30.8421C2.68881 30.9093 2.55584 31.024 2.44516 31.1454C2.02869 31.6022 1.34091 32.4889 1.0959 33.3584C0.973546 33.7926 0.892538 34.4803 1.34924 35.0662C1.79975 35.6443 2.52088 35.7958 3.18411 35.7958H3.19739H3.21124H3.22565H3.24061H3.25613H3.27221H3.28883H3.30601H3.32373H3.342H3.36082H3.38017H3.40006H3.42049H3.44145H3.46295H3.48498H3.50753H3.53061H3.55421H3.57833H3.60297H3.62813H3.65381H3.67999H3.70669H3.73389H3.7616H3.78981H3.81853H3.84774H3.87745H3.90765H3.93835H3.96954H4.00121H4.03338H4.06602H4.09915H4.13275H4.16684H4.20139H4.23642H4.27193H4.30789H4.34433H4.38123H4.41859H4.45641H4.49469H4.53342H4.5726H4.61224H4.65232H4.69285H4.73383H4.77525H4.8171H4.85939H4.90212H4.94528H4.98888H5.0329H5.07734H5.12222H5.16751H5.21322H5.25935H5.3059H5.35286H5.40023H5.44801H5.49619H5.54478H5.59378H5.64317H5.69296H5.74314H5.79372H5.84469H5.89605H5.9478H5.99993H6.05244H6.10533H6.1586H6.21225H6.26627H6.32066H6.37542H6.43055H6.48604H6.54189H6.59811H6.65468H6.71161H6.76889H6.82653H6.88451H6.94284H7.00152H7.06053H7.11989H7.17959H7.23962H7.29999H7.36069H7.42171H7.48307H7.54475H7.60675H7.66907H7.73172H7.79467H7.85795H7.92153H7.98542H8.04962H8.11413H8.17894H8.24405H8.30946H8.37516H8.44116H8.50746H8.57404H8.64091H8.70806H8.7755H8.84322H8.91121H8.97949H9.04804H9.11686H9.18595H9.2553H9.32493H9.39481H9.46496H9.53537H9.60603H9.67695H9.74812H9.81955H9.89121H9.96313H10.0353H10.1077H10.1803H10.2532H10.3263H10.3997H10.4732H10.547H10.6211H10.6953H10.7698H10.8445H10.9194H10.9945H11.0698H11.1454H11.2211H11.2971H11.3733H11.4496H11.5262H11.603H11.6799H11.7571H11.8344H11.912H11.9897H12.0676H12.1457H12.2239H12.3024H12.381H12.4598H12.5387H12.6179H12.6971H12.7766H12.8562H12.936H13.0159H13.096H13.1763H13.2567H13.3372H13.4179H13.4988H13.5797H13.6609H13.7421H13.8235H13.905H13.9867H14.0685H14.1504H14.2324H14.3146H14.3969H14.4793H14.5618H14.6444H14.7272H14.81H14.893H14.976H15.0592H15.1425H15.2258H15.3093H15.3928H15.4765H15.5602H15.644H15.7279H15.8119H15.896H15.9801H16.0643H16.1486H16.233H16.3174H16.4019H16.4865H16.5712H16.6558H16.7406H16.8254H16.9103H16.9952H17.0801H17.1652H17.2502H17.3353H17.4204H17.5056H17.5908H17.6761H17.7614H17.8467H17.932H18.0174H18.1028H18.1882H18.2736H18.3591H18.4445H18.53H18.6155H18.701H18.7865H18.872H18.9575H19.0429H19.1284H19.2139H19.2994H19.3849H19.4704H19.5558H19.6412H19.7266H19.812H19.8974H19.9827H20.0681H20.1533H20.2386H20.3238H20.409H20.4941H20.5792H20.6643H20.7493H20.8343H20.9192H21.0041H21.0889H21.1736H21.2583H21.343H21.4276H21.5121H21.5965H21.6809H21.7652H21.8494H21.9336H22.0177H22.1016H22.1856H22.2694H22.3531H22.4368H22.5203H22.6038H22.6872H22.7705H22.8536H22.9367H23.0197H23.1025H23.1853H23.2679H23.3505H23.4329H23.5152H23.5973H23.6794H23.7613H23.8431H23.9248H24.0063H24.0877H24.169H24.2501H24.3311H24.412H24.4927H24.5733H24.6537H24.7339H24.814H24.894H24.9738H25.0534H25.1329H25.2122H25.2914H25.3703H25.4492H25.5278H25.6062H25.6845H25.7626H25.8406H25.9183H25.9958H26.0732H26.1504H26.2274H26.3041H26.3807H26.4571H26.5333H26.6093H26.6851H26.7606H26.836H26.9111H26.9861H27.0608H27.1353H27.2096H27.2836H27.3574H27.431H27.5044H27.5775H27.6504H27.7231H27.7955H27.8677H27.9396H28.0113H28.0828H28.154H28.2249H28.2956H28.3661H28.4362H28.5062H28.5758H28.6452H28.7143H28.7832H28.8517H28.92H28.9881H29.0558H29.1233H29.1905H29.2574H29.324H29.3903H29.4563H29.5221H29.5875H29.6527H29.7175H29.782H29.8463H29.9102H29.9738H30.0371H30.1001H30.1628H30.2251H30.2872H30.3489H30.4103H30.4713H30.5321H30.5925H30.6525H30.7123H30.7717H30.8307H30.8894H30.9478H31.0058H31.0635H31.1208H31.1778H31.2344H31.2906H31.3465H31.4021H31.4572H31.512H31.5665H31.6205H31.6742H31.7275H31.7805H31.833H31.8852H31.937H31.9884H32.0394H32.09H32.1402H32.1901H32.2395H32.2885H32.3372H32.3854H32.4332H32.4806H32.5276H32.5742H32.6204H32.6662H32.7115H32.7564H32.8009H32.845H32.8886H32.9318H32.9746H33.0169H33.0588H33.1003H33.1413H33.1819H33.222H33.2617H33.3009H33.3397H33.3781H33.4159H33.4533H33.4903H33.5268H33.5628H33.5983H33.6334H33.668H33.7022H33.7358H33.769H33.8017H33.8339H33.8656H33.8969H33.9276H33.9579H33.9876H34.0169H34.0457H34.0739H34.1017H34.129H34.1557H34.1819H34.2077H34.2329H34.2576H34.2818H34.3054H34.3286H34.3512H34.3732H34.3948H34.4158H34.4363H34.4563H34.4757H34.4945H34.5129H34.5306H34.5479H34.5646H34.5807H34.5963H34.6113H34.6258H34.6397C35.3147 35.7958 36.0498 35.6514 36.5105 35.0776C36.9901 34.4803 36.8942 33.7752 36.7624 33.3399C36.4996 32.4717 35.7801 31.5857 35.3786 31.1454C35.2679 31.024 35.135 30.9093 35.0547 30.8421C35.0097 30.8044 34.9698 30.7722 34.9409 30.7493L34.9225 30.7349Z" fill="white" stroke="black" stroke-width="2"/>
</svg>
