<svg width="32" height="32" viewBox="0 0 32 32" fill="none" xmlns="http://www.w3.org/2000/svg">
<path d="M2.43043 0.173448L31.0343 14.4068C31.3234 14.5505 31.5675 14.7763 31.7384 15.0583C31.9093 15.3402 32 15.6668 32 16.0001C32 16.3334 31.9093 16.66 31.7384 16.9419C31.5675 17.2239 31.3234 17.4497 31.0343 17.5934L2.43043 31.8268C2.1372 31.9729 1.8098 32.0283 1.48717 31.9864C1.16454 31.9445 0.860278 31.807 0.610576 31.5904C0.360874 31.3737 0.176247 31.087 0.0786633 30.7643C-0.0189209 30.4417 -0.0253545 30.0966 0.0601281 29.7702L2.92187 18.8547C2.9569 18.7209 3.029 18.6008 3.12919 18.5094C3.22937 18.418 3.35321 18.3593 3.48526 18.3406L17.346 16.3815C17.4039 16.3729 17.4587 16.3489 17.5051 16.3118C17.5515 16.2746 17.5879 16.2257 17.6107 16.1696L17.6351 16.082C17.6458 16.0032 17.6306 15.9229 17.5919 15.8541C17.5532 15.7854 17.4933 15.7323 17.422 15.7035L17.3473 15.6823L3.50019 13.7232C3.36839 13.7043 3.24485 13.6454 3.14492 13.554C3.045 13.4626 2.9731 13.3427 2.93816 13.2091L0.0601281 2.23141C-0.0257007 1.90494 -0.0195289 1.55968 0.0779082 1.23675C0.175345 0.913826 0.359941 0.626844 0.60971 0.409989C0.859478 0.193133 1.16389 0.0555434 1.48669 0.0136063C1.8095 -0.0283308 2.13708 0.0271527 2.43043 0.173448Z" fill="#B12C29"/>
</svg>
