<svg width="30" height="31" viewBox="0 0 30 31" fill="none" xmlns="http://www.w3.org/2000/svg">
<path d="M17.8143 31H12.1867C11.8341 31.0001 11.4921 30.8793 11.2173 30.6577C10.9426 30.4361 10.7517 30.127 10.6762 29.7817L10.047 26.8615C9.20756 26.4928 8.41162 26.0316 7.6738 25.4867L4.83372 26.3934C4.49756 26.5009 4.13484 26.4898 3.80579 26.3621C3.47675 26.2344 3.20118 25.9977 3.02486 25.6912L0.204883 20.8072C0.030405 20.5005 -0.0350896 20.1435 0.0191143 19.7947C0.0733183 19.4458 0.244011 19.1257 0.503268 18.8867L2.70637 16.8717C2.60619 15.959 2.60619 15.0379 2.70637 14.1251L0.503268 12.1148C0.243644 11.8757 0.0727189 11.5554 0.0185061 11.2062C-0.0357066 10.857 0.0300092 10.4997 0.204883 10.1928L3.01867 5.30565C3.195 4.99924 3.47057 4.76252 3.79961 4.63479C4.12865 4.50707 4.49137 4.49602 4.82754 4.6035L7.66761 5.51025C8.04485 5.23125 8.43754 4.97085 8.8426 4.73525C9.23375 4.51515 9.63572 4.3152 10.047 4.13695L10.6778 1.21985C10.7528 0.874506 10.9434 0.565266 11.2179 0.343401C11.4923 0.121535 11.8341 0.000371947 12.1867 0H17.8143C18.1668 0.000371947 18.5087 0.121535 18.7831 0.343401C19.0575 0.565266 19.2481 0.874506 19.3232 1.21985L19.9602 4.1385C20.7985 4.50936 21.5942 4.97035 22.3333 5.51335L25.175 4.6066C25.5109 4.49952 25.8733 4.51076 26.202 4.63847C26.5307 4.76617 26.806 5.00267 26.9823 5.30875L29.7961 10.1959C30.1547 10.8267 30.0311 11.625 29.4977 12.1164L27.2946 14.1313C27.3948 15.0441 27.3948 15.9652 27.2946 16.8779L29.4977 18.893C30.0311 19.3858 30.1547 20.1826 29.7961 20.8134L26.9823 25.7005C26.8059 26.007 26.5304 26.2437 26.2013 26.3714C25.8723 26.4991 25.5096 26.5102 25.1734 26.4027L22.3333 25.4959C21.5961 26.0405 20.8006 26.5011 19.9617 26.8692L19.3232 29.7817C19.2478 30.1268 19.0571 30.4356 18.7827 30.6572C18.5083 30.8788 18.1666 30.9997 17.8143 31ZM14.9943 9.3C13.3542 9.3 11.7812 9.95321 10.6214 11.1159C9.46168 12.2787 8.81013 13.8557 8.81013 15.5C8.81013 17.1443 9.46168 18.7213 10.6214 19.8841C11.7812 21.0468 13.3542 21.7 14.9943 21.7C16.6344 21.7 18.2074 21.0468 19.3671 19.8841C20.5269 18.7213 21.1784 17.1443 21.1784 15.5C21.1784 13.8557 20.5269 12.2787 19.3671 11.1159C18.2074 9.95321 16.6344 9.3 14.9943 9.3Z" fill="white"/>
</svg>
