<svg width="27" height="31" viewBox="0 0 27 31" fill="none" xmlns="http://www.w3.org/2000/svg">
<path d="M4.96877 20.1104C6.20821 20.1065 7.40076 19.6052 8.30878 18.7063L17.1796 24.1068C16.8824 25.3442 17.0134 26.6542 17.5487 27.7971C18.084 28.94 18.9877 29.8393 20.0944 30.3303C21.2012 30.8213 22.4369 30.8712 23.5753 30.4709C24.7138 30.0705 25.6788 29.2467 26.2938 28.1503C26.9087 27.0539 27.1325 25.7581 26.924 24.5003C26.7156 23.2425 26.0889 22.1067 25.1587 21.3009C24.2285 20.4951 23.057 20.0732 21.8587 20.1124C20.6605 20.1516 19.5155 20.6494 18.6335 21.5145L9.76269 16.1141C9.85621 15.7366 9.90723 15.3456 9.91573 14.9546L18.6307 9.64774C19.4698 10.4612 20.546 10.9424 21.6787 11.0106C22.8114 11.0789 23.9316 10.73 24.8515 10.0226C25.7714 9.31522 26.435 8.29227 26.7309 7.1254C27.0268 5.95853 26.9371 4.71874 26.4767 3.61401C26.0164 2.50929 25.2134 1.60684 24.2026 1.05807C23.1918 0.50931 22.0345 0.347613 20.9251 0.600111C19.8156 0.852609 18.8214 1.50394 18.1093 2.44483C17.3971 3.38573 17.0103 4.55894 17.0138 5.76764C17.0195 6.20245 17.0747 6.63576 17.1796 7.05547L9.12501 11.9577C8.65791 11.1878 8.01086 10.5606 7.24743 10.1378C6.48399 9.71492 5.63044 9.51095 4.77063 9.5459C3.91082 9.58085 3.07433 9.85352 2.34335 10.3371C1.61238 10.8207 1.01206 11.4986 0.601385 12.3042C0.190708 13.1097 -0.0161998 14.0153 0.000990093 14.9318C0.01818 15.8483 0.258876 16.7444 0.699431 17.5318C1.13998 18.3192 1.76524 18.971 2.51376 19.4231C3.26229 19.8752 4.10833 20.1121 4.96877 20.1104Z" fill="black"/>
</svg>
