<svg width="31" height="25" viewBox="0 0 31 25" fill="none" xmlns="http://www.w3.org/2000/svg">
<path d="M27.9 0H3.1C1.395 0 0 1.40625 0 3.125V21.875C0 23.5938 1.395 25 3.1 25H27.9C29.605 25 31 23.5938 31 21.875V3.125C31 1.40625 29.605 0 27.9 0ZM4.65 12.5H7.75C8.6025 12.5 9.3 13.2031 9.3 14.0625C9.3 14.9219 8.6025 15.625 7.75 15.625H4.65C3.7975 15.625 3.1 14.9219 3.1 14.0625C3.1 13.2031 3.7975 12.5 4.65 12.5ZM17.05 21.875H4.65C3.7975 21.875 3.1 21.1719 3.1 20.3125C3.1 19.4531 3.7975 18.75 4.65 18.75H17.05C17.9025 18.75 18.6 19.4531 18.6 20.3125C18.6 21.1719 17.9025 21.875 17.05 21.875ZM26.35 21.875H23.25C22.3975 21.875 21.7 21.1719 21.7 20.3125C21.7 19.4531 22.3975 18.75 23.25 18.75H26.35C27.2025 18.75 27.9 19.4531 27.9 20.3125C27.9 21.1719 27.2025 21.875 26.35 21.875ZM26.35 15.625H13.95C13.0975 15.625 12.4 14.9219 12.4 14.0625C12.4 13.2031 13.0975 12.5 13.95 12.5H26.35C27.2025 12.5 27.9 13.2031 27.9 14.0625C27.9 14.9219 27.2025 15.625 26.35 15.625Z" fill="white"/>
</svg>
