<svg width="31" height="31" viewBox="0 0 31 31" fill="none" xmlns="http://www.w3.org/2000/svg">
<path d="M21.7 29.4498C27.1668 27.052 30.9984 21.8409 30.9984 15.4998C30.9984 9.15875 27.1668 3.94765 21.7 1.5498V4.6498C25.3998 6.7981 27.8984 10.9227 27.8984 15.4998C27.8984 20.077 25.3998 24.2015 21.7 26.3498V29.4498Z" fill="white"/>
<path d="M21.7 7.7495V23.2495C23.5987 21.5445 24.8 18.2446 24.8 15.4995C24.8 12.7545 23.5987 9.4545 21.7 7.7495ZM3.1 23.2495H7.28035L18.6 30.7949V0.204102L7.28035 7.7495H3.1C1.39035 7.7495 0 9.13985 0 10.8495V20.1495C0 21.8592 1.39035 23.2495 3.1 23.2495Z" fill="white"/>
</svg>
