<svg width="34" height="34" viewBox="0 0 34 34" fill="none" xmlns="http://www.w3.org/2000/svg">
<circle cx="17" cy="17" r="17" fill="#1E1E1E"/>
<path d="M7 17C7 14.3478 8.05357 11.8043 9.92893 9.92893C11.8043 8.05357 14.3478 7 17 7C19.6522 7 22.1957 8.05357 24.0711 9.92893C25.9464 11.8043 27 14.3478 27 17C27 19.6522 25.9464 22.1957 24.0711 24.0711C22.1957 25.9464 19.6522 27 17 27C14.3478 27 11.8043 25.9464 9.92893 24.0711C8.05357 22.1957 7 19.6522 7 17V17ZM16.375 8.34625C15.5375 8.60125 14.7062 9.37125 14.0162 10.665C13.7889 11.0951 13.5934 11.5413 13.4312 12H16.375V8.34625ZM12.1125 12C12.3208 11.336 12.5886 10.6922 12.9125 10.0762C13.1286 9.66757 13.3782 9.27749 13.6588 8.91C12.11 9.55228 10.7775 10.6245 9.81875 12H12.1125ZM11.385 16.375C11.4225 15.2788 11.5575 14.2275 11.775 13.25H9.0925C8.6264 14.2313 8.34827 15.2913 8.2725 16.375H11.385ZM13.0588 13.25C12.8129 14.2748 12.6713 15.3218 12.6362 16.375H16.375V13.25H13.0588ZM17.625 13.25V16.375H21.3625C21.3279 15.3218 21.1867 14.2748 20.9412 13.25H17.625ZM12.6375 17.625C12.6722 18.6782 12.8133 19.7252 13.0588 20.75H16.375V17.625H12.6375ZM17.625 17.625V20.75H20.9412C21.175 19.7938 21.3238 18.74 21.3638 17.625H17.625ZM13.4312 22C13.6037 22.4825 13.8 22.93 14.0162 23.335C14.7062 24.6287 15.5387 25.3975 16.375 25.6538V22H13.4312ZM13.6588 25.09C13.3782 24.7225 13.1286 24.3324 12.9125 23.9237C12.5886 23.3078 12.3208 22.664 12.1125 22H9.81875C10.7775 23.3755 12.11 24.4478 13.6588 25.09V25.09ZM11.775 20.75C11.549 19.7226 11.4184 18.6765 11.385 17.625H8.2725C8.35 18.7375 8.63625 19.7912 9.0925 20.75H11.775ZM20.3413 25.09C21.89 24.4478 23.2225 23.3755 24.1812 22H21.8875C21.6791 22.664 21.4114 23.3078 21.0875 23.9237C20.8714 24.3325 20.6218 24.7226 20.3413 25.09V25.09ZM17.625 22V25.6538C18.4625 25.3988 19.2938 24.6287 19.9838 23.335C20.2 22.93 20.3962 22.4825 20.5687 22H17.625ZM22.225 20.75H24.9075C25.3638 19.7912 25.65 18.7375 25.7275 17.625H22.615C22.5816 18.6765 22.4511 19.7226 22.225 20.75ZM25.7275 16.375C25.6517 15.2913 25.3736 14.2313 24.9075 13.25H22.225C22.4425 14.2275 22.5775 15.2788 22.615 16.375H25.7275ZM21.0875 10.0762C21.3963 10.6562 21.665 11.3012 21.8875 12H24.1812C23.2225 10.6245 21.89 9.55222 20.3413 8.91C20.6138 9.265 20.8638 9.6575 21.0875 10.0762V10.0762ZM20.5687 12C20.4066 11.5413 20.2111 11.0951 19.9838 10.665C19.2938 9.37125 18.4625 8.6025 17.625 8.34625V12H20.5687Z" fill="white"/>
</svg>
