<svg width="23" height="31" viewBox="0 0 23 31" fill="none" xmlns="http://www.w3.org/2000/svg">
<path d="M2.56582e-07 30.0306C-0.000121505 30.1988 0.0430953 30.3641 0.125397 30.5104C0.207699 30.6566 0.326248 30.7786 0.469376 30.8644C0.612503 30.9503 0.775275 30.9969 0.941668 30.9999C1.10806 31.0028 1.27234 30.9619 1.41833 30.8811L11.5 25.3206L21.5817 30.8811C21.7277 30.9619 21.8919 31.0028 22.0583 30.9999C22.2247 30.9969 22.3875 30.9503 22.5306 30.8644C22.6738 30.7786 22.7923 30.6566 22.8746 30.5104C22.9569 30.3641 23.0001 30.1988 23 30.0306V3.87491C23 2.84722 22.5961 1.86162 21.8772 1.13494C21.1584 0.408248 20.1833 0 19.1667 0L3.83333 0C2.81667 0 1.84165 0.408248 1.12276 1.13494C0.403868 1.86162 2.56582e-07 2.84722 2.56582e-07 3.87491V30.0306ZM11.5 8.54418C14.1584 5.7833 20.8035 10.6173 11.5 16.8307C2.1965 10.6173 8.84158 5.78524 11.5 8.54805V8.54418Z" fill="black"/>
</svg>
