<svg width="115" height="98" viewBox="0 0 115 98" fill="none" xmlns="http://www.w3.org/2000/svg">
<path d="M5.15008 7.01502L5.14964 7.01504C4.18518 7.07394 3.26875 7.41486 2.50826 7.99635C1.7477 8.57789 1.17277 9.37739 0.853853 10.3018C0.534845 11.2264 0.485459 12.2374 0.714724 13.2141C0.944014 14.191 1.44187 15.0901 2.14871 15.8036L2.14895 15.8039L28.076 42.0123L28.0762 42.0125C28.3251 42.2645 28.6367 42.4366 28.9702 42.5103C29.3032 42.5838 29.6435 42.5561 29.9498 42.4337L5.15008 7.01502ZM5.15008 7.01502L108.739 0.597874L108.739 0.597852C109.689 0.538402 110.648 0.755038 111.506 1.22606C112.364 1.69718 113.083 2.40296 113.579 3.2625C114.076 4.12205 114.327 5.09795 114.306 6.07632C114.285 7.0545 113.993 7.99382 113.467 8.78678L113.467 8.78704L56.115 95.2888L56.1148 95.289C55.5816 96.0942 54.8285 96.7169 53.9452 97.0846C53.0618 97.4524 52.0825 97.5506 51.123 97.3651C50.1632 97.1794 49.2633 96.7174 48.532 96.0314L48.1899 96.396M5.15008 7.01502L48.1899 96.396M48.1899 96.396L48.532 96.0314C47.8007 95.3452 47.2706 94.4654 47.0053 93.4973L37.3268 58.141L37.3267 58.1409C37.233 57.7987 37.2399 57.4423 37.3435 57.1162C37.4469 56.7904 37.6421 56.5092 37.9026 56.3052M48.1899 96.396L37.9026 56.3052M37.9026 56.3052L73.7143 28.2808L73.7169 28.2788C73.9363 28.1047 74.1045 27.8753 74.2064 27.6143C74.3082 27.3535 74.3404 27.0704 74.3021 26.7927L74.2982 26.7643L74.2911 26.7366L74.2176 26.4505L74.209 26.4173L74.196 26.3855C74.0572 26.0464 73.8113 25.7602 73.4962 25.5737C73.1808 25.3871 72.8122 25.3101 72.4493 25.3611L72.4227 25.3648L72.3965 25.3714L72.1521 25.4331L72.1191 25.4414L72.0875 25.4541L29.9509 42.4333L37.9026 56.3052Z" stroke="#D9D9D9"/>
</svg>
